<svg width="24" height="24" viewBox="0 0 24 24" fill="none" xmlns="http://www.w3.org/2000/svg">
<path d="M11.495 2.71393C11.7015 2.29539 12.2984 2.29539 12.5049 2.71393L15.1789 8.13206C15.261 8.29826 15.4195 8.41346 15.6029 8.44012L21.5822 9.30895C22.0441 9.37607 22.2285 9.94369 21.8943 10.2695L17.5677 14.4869C17.4349 14.6163 17.3744 14.8027 17.4057 14.9854L18.4271 20.9404C18.506 21.4005 18.0231 21.7513 17.61 21.5341L12.262 18.7225C12.0979 18.6362 11.902 18.6362 11.7379 18.7225L6.38989 21.5341C5.97676 21.7513 5.49392 21.4005 5.57282 20.9404L6.5942 14.9854C6.62553 14.8027 6.56496 14.6163 6.43224 14.4869L2.10561 10.2695C1.77138 9.94369 1.95581 9.37607 2.41771 9.30895L8.39696 8.44012C8.58038 8.41346 8.73894 8.29826 8.82097 8.13206L11.495 2.71393Z" stroke="#015FFA" stroke-width="2" stroke-linejoin="round"/>
</svg>
